<?xml version="1.0" encoding="utf-8"?>
<!-- Generator: Adobe Illustrator 24.2.0, SVG Export Plug-In . SVG Version: 6.00 Build 0)  -->
<svg version="1.1" id="Layer_1" xmlns="http://www.w3.org/2000/svg" xmlns:xlink="http://www.w3.org/1999/xlink" x="0px" y="0px"
	 viewBox="0 0 128 31" style="enable-background:new 0 0 128 31;" xml:space="preserve">
<style type="text/css">
	.st0{fill:#1F1B20;}
	.st1{font-family:'TrajanPro-Regular';}
	.st2{font-size:28.1943px;}
	.st3{fill:#336699;}
	.st4{font-family:'Sumana-Regular';}
	.st5{font-size:8.4583px;}
	.st6{clip-path:url(#SVGID_2_);}
	.st7{fill:#2581B4;}
	.st8{fill:#0EAFE2;}
</style>
<text transform="matrix(1 0 0 1 -1.9199 22.1472)" class="st0 st1 st2">SPARK</text>
<text transform="matrix(1 0 0 1 23.5088 30.0808)" class="st3 st4 st5">PRIVATE WEALTH</text>
<g>
	<rect x="98.84" y="0.7" class="st3" width="28.66" height="29.6"/>
	<g>
		<g>
			<defs>
				<rect id="SVGID_1_" x="98.84" y="0.7" width="28.66" height="29.6"/>
			</defs>
			<clipPath id="SVGID_2_">
				<use xlink:href="#SVGID_1_"  style="overflow:visible;"/>
			</clipPath>
			<g class="st6">
				<polygon class="st7" points="107.45,6.9 110.18,-4.04 110.33,7.24 115.8,-2.63 113.02,8.3 120.86,0.19 115.35,10.03 
					125.02,4.22 117.14,12.3 127.99,9.19 118.29,14.96 129.57,14.76 118.72,17.82 129.66,20.55 118.38,20.7 128.25,26.17 
					117.31,23.39 125.43,31.23 115.59,25.72 121.4,35.38 113.32,27.51 116.43,38.36 110.66,28.66 110.86,39.94 107.79,29.08 
					105.07,40.03 104.92,28.75 99.45,38.62 102.23,27.68 94.39,35.8 99.9,25.96 90.23,31.77 98.1,23.69 87.26,26.8 96.95,21.03 
					85.68,21.23 96.53,18.16 85.59,15.44 96.87,15.29 87,9.82 97.93,12.59 89.82,4.76 99.66,10.27 93.85,0.6 101.93,8.47 
					98.82,-2.37 104.59,7.32 104.39,-3.96 				"/>
				<polygon class="st8" points="103.97,9.1 105.58,3.05 105.57,9.31 108.69,3.88 107.05,9.93 111.47,5.49 108.33,10.91 
					113.75,7.76 109.31,12.18 115.36,10.55 109.92,13.67 116.19,13.66 110.13,15.27 116.19,16.87 109.92,16.86 115.36,19.98 
					109.31,18.35 113.75,22.77 108.33,19.62 111.47,25.04 107.05,20.6 108.69,26.65 105.57,21.22 105.58,27.48 103.97,21.43 
					102.36,27.48 102.38,21.22 99.26,26.65 100.89,20.6 96.47,25.04 99.61,19.62 94.19,22.77 98.63,18.35 92.59,19.98 98.02,16.86 
					91.75,16.87 97.81,15.27 91.75,13.66 98.02,13.67 92.59,10.55 98.63,12.18 94.19,7.76 99.61,10.91 96.47,5.49 100.89,9.93 
					99.26,3.88 102.38,9.31 102.36,3.05 				"/>
				<polygon class="st3" points="104.14,18.25 105.85,12.46 105.67,18.49 108.82,13.34 107.09,19.12 111.46,14.96 108.29,20.09 
					113.59,17.2 109.2,21.35 115.07,19.93 109.76,22.79 115.79,22.94 109.92,24.33 115.71,26.03 109.68,25.86 114.83,29 
					109.05,27.28 113.21,31.65 108.07,28.48 110.96,33.78 106.82,29.39 108.24,35.25 105.37,29.95 105.23,35.98 103.83,30.11 
					102.13,35.9 102.3,29.86 99.16,35.02 100.89,29.23 96.52,33.4 99.68,28.26 94.39,31.15 98.77,27.01 92.91,28.43 98.22,25.56 
					92.19,25.42 98.06,24.02 92.27,22.32 98.3,22.49 93.15,19.35 98.93,21.08 94.77,16.71 99.9,19.87 97.01,14.58 101.16,18.96 
					99.74,13.1 102.6,18.41 102.75,12.38 				"/>
			</g>
		</g>
	</g>
</g>
</svg>
